<svg xmlns="http://www.w3.org/2000/svg"  viewBox="0 0 128 128" width="64px" height="64px"><path fill="#ff697b" d="M86.2,104H41.8C32,104,24,96,24,86.2V41.8C24,32,32,24,41.8,24h44.4C96,24,104,32,104,41.8v44.4C104,96,96,104,86.2,104z"/><path fill="#ff697b" d="M86.2,104H41.8C32,104,24,96,24,86.2V41.8C24,32,32,24,41.8,24h44.4C96,24,104,32,104,41.8v44.4C104,96,96,104,86.2,104z"/><path fill="#fff" d="M24,41.8v14.7c14.5-11.1,41.2-24.9,79.5-19C101.5,29.7,94.6,24,86.2,24H41.8C32,24,24,32,24,41.8z"/><path fill="#fff" d="M53.5 49L53.5 79 79.5 64z"/><path fill="none" stroke="#444b54" stroke-linecap="round" stroke-linejoin="round" stroke-miterlimit="10" stroke-width="6" d="M86.2,104H41.8C32,104,24,96,24,86.2V41.8C24,32,32,24,41.8,24h44.4C96,24,104,32,104,41.8v44.4C104,96,96,104,86.2,104z"/></svg>